<?xml version="1.0" encoding="utf-8"?>
<!-- Generator: Adobe Illustrator 22.0.1, SVG Export Plug-In . SVG Version: 6.00 Build 0)  -->
<svg version="1.1" id="Layer_1" xmlns="http://www.w3.org/2000/svg" xmlns:xlink="http://www.w3.org/1999/xlink" x="0px" y="0px"
	 viewBox="0 0 393 68" style="enable-background:new 0 0 393 68;" xml:space="preserve">
<style type="text/css">
	.st0{fill:#4FA34A;}
	.st1{enable-background:new    ;}
	.st2{fill:#FFFFFF;}
</style>
<g>
	<g id="Shield">
		<path class="st0" d="M9.4,0.1c1.8,0.7,3.6,1.1,5.4,1.3c1.8,0.3,3.7,0.4,5.5,0.5c2.5,0.1,5.1,0,7.6-0.4c2.1-0.3,4.1-0.7,6-1.4
			c0.1,0,0.2,0,0.2,0c2.3,0.8,4.7,1.3,7.1,1.5c2.6,0.3,5.3,0.4,7.9,0.2c2.6-0.2,5.2-0.5,7.7-1.2C57.4,0.4,58,0.2,58.7,0
			c0,0,0,0,0.1,0.1c2.7,3.6,5,7.5,6.6,11.7c1.1,2.8,1.9,5.6,2.3,8.5c0.4,2.8,0.6,5.5,0.4,8.3c-0.7,8.7-3.6,16.7-9,23.7
			c-3.2,4.1-7,7.5-11.4,10.1c-3.5,2.2-7.3,3.8-11.3,5c-0.7,0.2-1.4,0.4-2.2,0.6c-0.1,0-0.2,0-0.2,0c-4.8-1.3-9.4-3.1-13.6-5.8
			C12.2,57.6,6.5,50.6,3,41.8c-1.2-3.2-2.1-6.5-2.6-9.9c-0.4-2.6-0.5-5.2-0.3-7.8C0.4,19,1.7,14.2,3.8,9.6C5.2,6.3,7.1,3.2,9.4,0.1
			C9.3,0.2,9.4,0.2,9.4,0.1z"/>
	</g>
	<g>
		<path class="st0" d="M102.9,13.5c2.6,0,5,0.4,7.2,1.2c2.2,0.8,4.1,2.1,5.8,3.7c1.7,1.6,2.9,3.7,3.8,6.2s1.4,5.4,1.4,8.7
			c0,2.9-0.4,5.6-1.1,8.1c-0.7,2.5-1.9,4.6-3.4,6.4c-1.5,1.8-3.4,3.2-5.7,4.2c-2.3,1-4.9,1.5-8,1.5H85.6v-40
			C85.6,13.5,102.9,13.5,102.9,13.5z M102.3,46.1c1.3,0,2.5-0.2,3.7-0.6c1.2-0.4,2.3-1.1,3.2-2c0.9-1,1.7-2.2,2.2-3.7
			c0.6-1.5,0.8-3.4,0.8-5.6c0-2-0.2-3.8-0.6-5.5s-1-3-1.9-4.2s-2.1-2-3.6-2.7c-1.5-0.6-3.3-0.9-5.5-0.9h-6.3v25.2H102.3z"/>
		<path class="st0" d="M126.5,32.8c0.7-1.9,1.7-3.5,3-4.8s2.9-2.4,4.7-3.1c1.8-0.7,3.9-1.1,6.2-1.1s4.3,0.4,6.2,1.1
			c1.8,0.7,3.4,1.8,4.7,3.1s2.3,2.9,3,4.8c0.7,1.9,1.1,4,1.1,6.3s-0.4,4.4-1.1,6.3c-0.7,1.9-1.7,3.5-3,4.8s-2.9,2.3-4.7,3.1
			s-3.9,1.1-6.2,1.1s-4.3-0.4-6.2-1.1c-1.8-0.7-3.4-1.7-4.7-3.1c-1.3-1.3-2.3-2.9-3-4.8c-0.7-1.9-1.1-4-1.1-6.3
			C125.4,36.7,125.8,34.6,126.5,32.8z M133.7,42.4c0.2,1.1,0.6,2.1,1.1,3s1.3,1.6,2.2,2.1s2,0.8,3.4,0.8c1.3,0,2.5-0.3,3.4-0.8
			s1.6-1.2,2.2-2.1c0.5-0.9,0.9-1.9,1.1-3c0.2-1.1,0.3-2.2,0.3-3.4s-0.1-2.3-0.3-3.4c-0.2-1.1-0.6-2.1-1.1-3s-1.3-1.6-2.2-2.1
			s-2-0.8-3.4-0.8c-1.3,0-2.5,0.3-3.4,0.8s-1.6,1.2-2.2,2.1c-0.5,0.9-0.9,1.8-1.1,3c-0.2,1.1-0.3,2.3-0.3,3.4
			C133.4,40.2,133.5,41.3,133.7,42.4z"/>
		<path class="st0" d="M174.3,29.8c-1.3,0-2.3,0.3-3.2,0.9c-0.9,0.6-1.6,1.3-2.1,2.2s-0.9,1.9-1.1,3c-0.2,1.1-0.3,2.2-0.3,3.3
			c0,1,0.1,2.1,0.3,3.2s0.6,2.1,1.1,2.9c0.5,0.9,1.2,1.6,2,2.2c0.9,0.6,1.9,0.8,3.1,0.8c1.9,0,3.4-0.5,4.4-1.6s1.7-2.5,1.9-4.3h7.7
			c-0.5,3.8-2,6.8-4.5,8.8c-2.5,2-5.6,3-9.5,3c-2.2,0-4.2-0.4-6-1.1s-3.4-1.7-4.6-3.1c-1.3-1.3-2.3-2.9-3-4.7s-1.1-3.8-1.1-6
			s0.3-4.3,1-6.2s1.6-3.6,2.9-5c1.3-1.4,2.8-2.5,4.6-3.3s3.9-1.2,6.3-1.2c1.7,0,3.4,0.2,5,0.7c1.6,0.4,3,1.1,4.3,2s2.3,2.1,3.1,3.4
			c0.8,1.4,1.2,3,1.3,4.8h-7.8C179.7,31.4,177.7,29.8,174.3,29.8z"/>
		<path class="st0" d="M200.2,43.7c0.5,0.9,1.1,1.7,1.9,2.3c0.8,0.6,1.7,1,2.8,1.3s2.2,0.4,3.4,0.4c0.8,0,1.6-0.1,2.5-0.2
			c0.9-0.1,1.7-0.4,2.5-0.8c0.8-0.4,1.4-0.9,2-1.5c0.5-0.7,0.8-1.5,0.8-2.5c0-1.1-0.3-2-1-2.6c-0.7-0.7-1.6-1.2-2.7-1.7
			c-1.1-0.4-2.4-0.8-3.8-1.2c-1.4-0.3-2.9-0.7-4.3-1.1c-1.5-0.4-3-0.8-4.4-1.4c-1.4-0.5-2.7-1.2-3.8-2.1c-1.1-0.9-2-1.9-2.7-3.2
			s-1-2.8-1-4.7c0-2.1,0.4-3.8,1.3-5.3c0.9-1.5,2-2.8,3.4-3.8s3-1.8,4.8-2.2c1.8-0.5,3.6-0.7,5.4-0.7c2.1,0,4.1,0.2,6,0.7
			s3.6,1.2,5.1,2.3c1.5,1,2.7,2.4,3.6,4c0.9,1.6,1.3,3.6,1.3,5.9h-8.5c-0.1-1.2-0.3-2.2-0.8-3c-0.4-0.8-1-1.4-1.7-1.8
			c-0.7-0.4-1.5-0.8-2.4-1s-1.9-0.3-3-0.3c-0.7,0-1.4,0.1-2.1,0.2c-0.7,0.1-1.4,0.4-1.9,0.8s-1.1,0.8-1.4,1.4
			c-0.4,0.6-0.6,1.3-0.6,2.1s0.1,1.4,0.4,1.9c0.3,0.5,0.9,0.9,1.8,1.3c0.9,0.4,2.1,0.8,3.6,1.2s3.6,0.9,6.1,1.6
			c0.7,0.1,1.8,0.4,3.1,0.8c1.3,0.4,2.6,1,3.9,1.9c1.3,0.9,2.4,2,3.4,3.4s1.4,3.3,1.4,5.5c0,1.8-0.4,3.5-1.1,5.1
			c-0.7,1.6-1.8,2.9-3.2,4.1c-1.4,1.1-3.1,2-5.2,2.7c-2.1,0.6-4.5,1-7.2,1c-2.2,0-4.3-0.3-6.4-0.8c-2.1-0.5-3.9-1.4-5.5-2.5
			c-1.6-1.2-2.8-2.6-3.8-4.4c-0.9-1.8-1.4-3.9-1.3-6.4h8.5C199.5,41.6,199.7,42.7,200.2,43.7z"/>
		<path class="st0" d="M242.8,29.8c-1.3,0-2.3,0.3-3.2,0.9c-0.9,0.6-1.6,1.3-2.1,2.2s-0.9,1.9-1.1,3c-0.2,1.1-0.3,2.2-0.3,3.3
			c0,1,0.1,2.1,0.3,3.2s0.6,2.1,1.1,2.9c0.5,0.9,1.2,1.6,2,2.2c0.9,0.6,1.9,0.8,3.1,0.8c1.9,0,3.4-0.5,4.4-1.6s1.7-2.5,1.9-4.3h7.7
			c-0.5,3.8-2,6.8-4.5,8.8c-2.5,2-5.6,3-9.5,3c-2.2,0-4.2-0.4-6-1.1s-3.4-1.7-4.6-3.1c-1.3-1.3-2.3-2.9-3-4.7s-1.1-3.8-1.1-6
			s0.3-4.3,1-6.2s1.6-3.6,2.9-5c1.3-1.4,2.8-2.5,4.6-3.3s3.9-1.2,6.3-1.2c1.7,0,3.4,0.2,5,0.7c1.6,0.4,3,1.1,4.3,2
			c1.2,0.9,2.3,2.1,3.1,3.4c0.8,1.4,1.2,3,1.3,4.8h-7.8C248.2,31.4,246.2,29.8,242.8,29.8z"/>
		<path class="st0" d="M261.3,32.8c0.7-1.9,1.7-3.5,3-4.8s2.9-2.4,4.7-3.1c1.8-0.7,3.9-1.1,6.2-1.1c2.3,0,4.3,0.4,6.2,1.1
			c1.8,0.7,3.4,1.8,4.7,3.1c1.3,1.3,2.3,2.9,3,4.8c0.7,1.9,1.1,4,1.1,6.3s-0.4,4.4-1.1,6.3c-0.7,1.9-1.7,3.5-3,4.8s-2.9,2.3-4.7,3.1
			c-1.8,0.7-3.9,1.1-6.2,1.1c-2.3,0-4.3-0.4-6.2-1.1s-3.4-1.7-4.7-3.1s-2.3-2.9-3-4.8c-0.7-1.9-1.1-4-1.1-6.3
			C260.2,36.7,260.6,34.6,261.3,32.8z M268.5,42.4c0.2,1.1,0.6,2.1,1.1,3s1.3,1.6,2.2,2.1c0.9,0.5,2,0.8,3.4,0.8s2.5-0.3,3.4-0.8
			s1.6-1.2,2.2-2.1c0.5-0.9,0.9-1.9,1.1-3s0.3-2.2,0.3-3.4s-0.1-2.3-0.3-3.4c-0.2-1.1-0.6-2.1-1.1-3s-1.3-1.6-2.2-2.1
			s-2-0.8-3.4-0.8s-2.5,0.3-3.4,0.8s-1.6,1.2-2.2,2.1c-0.5,0.9-0.9,1.8-1.1,3c-0.2,1.1-0.3,2.3-0.3,3.4
			C268.2,40.2,268.3,41.3,268.5,42.4z"/>
		<path class="st0" d="M302.9,24.6V30h0.1c0.4-0.9,0.9-1.7,1.5-2.5s1.4-1.4,2.2-2c0.8-0.5,1.7-1,2.6-1.3s1.9-0.4,2.9-0.4
			c0.5,0,1.1,0.1,1.7,0.3v7.4c-0.4-0.1-0.8-0.1-1.3-0.2c-0.5-0.1-1-0.1-1.5-0.1c-1.5,0-2.7,0.2-3.7,0.7s-1.8,1.1-2.4,2
			c-0.6,0.8-1.1,1.8-1.3,2.9c-0.3,1.1-0.4,2.3-0.4,3.6v13h-8v-29h7.6V24.6z"/>
		<path class="st0" d="M324.6,46.6c1.2,1.2,2.9,1.7,5.2,1.7c1.6,0,3-0.4,4.1-1.2c1.2-0.8,1.9-1.7,2.1-2.5h7c-1.1,3.5-2.8,6-5.2,7.4
			c-2.4,1.4-5.1,2.2-8.4,2.2c-2.3,0-4.3-0.4-6.2-1.1c-1.8-0.7-3.4-1.8-4.6-3.1c-1.3-1.3-2.2-2.9-2.9-4.8c-0.7-1.9-1-3.9-1-6.2
			c0-2.2,0.4-4.2,1.1-6c0.7-1.9,1.7-3.5,3-4.8c1.3-1.4,2.9-2.4,4.7-3.2c1.8-0.8,3.8-1.2,6-1.2c2.5,0,4.6,0.5,6.4,1.4
			c1.8,1,3.3,2.2,4.5,3.8s2,3.4,2.5,5.5s0.7,4.2,0.6,6.4h-20.9C322.8,43.5,323.5,45.4,324.6,46.6z M333.6,31.3c-1-1-2.4-1.6-4.3-1.6
			c-1.3,0-2.3,0.2-3.2,0.6c-0.8,0.4-1.5,1-2,1.6s-0.9,1.3-1.1,2s-0.3,1.3-0.4,1.9h12.9C335.2,33.9,334.6,32.4,333.6,31.3z"/>
		<path class="st0" d="M355,46.3c0.4,0.6,0.8,1.1,1.4,1.5s1.2,0.7,1.9,0.9c0.7,0.2,1.5,0.3,2.3,0.3c0.6,0,1.1-0.1,1.8-0.2
			c0.6-0.1,1.2-0.3,1.7-0.6s0.9-0.7,1.3-1.1s0.5-1.1,0.5-1.8c0-1.2-0.8-2.1-2.4-2.7c-1.6-0.6-3.8-1.2-6.6-1.8
			c-1.2-0.3-2.3-0.6-3.4-0.9c-1.1-0.4-2.1-0.8-2.9-1.4c-0.9-0.6-1.5-1.3-2.1-2.2c-0.5-0.9-0.8-2-0.8-3.2c0-1.9,0.4-3.4,1.1-4.6
			c0.7-1.2,1.7-2.1,2.9-2.8c1.2-0.7,2.5-1.2,4-1.5s3-0.4,4.6-0.4s3.1,0.2,4.6,0.4c1.5,0.3,2.8,0.8,3.9,1.5c1.2,0.7,2.1,1.7,2.9,2.8
			c0.8,1.2,1.2,2.7,1.4,4.5h-7.6c-0.1-1.5-0.7-2.6-1.7-3.1s-2.3-0.8-3.7-0.8c-0.4,0-0.9,0-1.5,0.1c-0.5,0.1-1,0.2-1.4,0.4
			s-0.8,0.5-1.1,0.8c-0.3,0.4-0.4,0.8-0.4,1.4c0,0.7,0.3,1.3,0.8,1.7s1.2,0.8,2,1.1s1.8,0.5,2.9,0.8c1.1,0.2,2.2,0.5,3.3,0.7
			c1.2,0.3,2.3,0.6,3.4,1s2.1,0.9,2.9,1.5c0.9,0.6,1.5,1.4,2.1,2.3c0.5,0.9,0.8,2,0.8,3.4c0,1.9-0.4,3.5-1.1,4.8
			c-0.8,1.3-1.8,2.3-3,3.1c-1.2,0.8-2.6,1.3-4.2,1.7c-1.6,0.3-3.2,0.5-4.8,0.5c-1.7,0-3.3-0.2-4.9-0.5s-3-0.9-4.3-1.7
			s-2.3-1.8-3.1-3.1c-0.8-1.3-1.2-2.9-1.3-4.8h7.6C354.4,45,354.6,45.7,355,46.3z"/>
	</g>
	<g class="st1">
		<path class="st2" d="M14,38v-9.8h15.4V12.8h9.9v15.4h15.4V38H39.3v15.5h-9.9V38H14z"/>
	</g>
	<g>
		<path class="st0" d="M374.3,16.9v-1.7h7.6v1.7h-2.8v7.6h-2v-7.6H374.3z"/>
		<path class="st0" d="M385.8,15.2l2.2,6.4l0,0l2.1-6.4h2.9v9.3h-2v-6.6l0,0l-2.3,6.6h-1.6l-2.3-6.5l0,0v6.5h-1.9v-9.3
			C382.9,15.2,385.8,15.2,385.8,15.2z"/>
	</g>
</g>
</svg>
