<?xml version="1.0" encoding="utf-8"?>
<!-- Generator: Adobe Illustrator 22.0.1, SVG Export Plug-In . SVG Version: 6.00 Build 0)  -->
<svg version="1.1" id="Layer_1" xmlns="http://www.w3.org/2000/svg" xmlns:xlink="http://www.w3.org/1999/xlink" x="0px" y="0px"
	 viewBox="0 0 327.5 85.3" style="enable-background:new 0 0 327.5 85.3;" xml:space="preserve">
<style type="text/css">
	.st0{fill:#FFFFFF;}
</style>
<g>
	<path class="st0" d="M74.9,72.9h3.6v4.7h4.1v-4.7H86v12.3h-3.5v-4.9h-4.1v4.9h-3.6V72.9z"/>
	<path class="st0" d="M92.5,72.9h8.5v2.7h-5v2.1h4v2.5h-4v2.2h5.3v2.7h-8.8V72.9z"/>
	<path class="st0" d="M110.5,72.9h4.6l3.9,12.3h-3.7l-0.7-2.3h-4.1l-0.7,2.3h-3.3L110.5,72.9z M111.2,80.5h2.7l-1.3-4.7L111.2,80.5z
		"/>
	<path class="st0" d="M124.6,72.9h3.6v9.6h4.7v2.7h-8.2V72.9z"/>
	<path class="st0" d="M139.7,75.6h-3.2v-2.7h9.9v2.7h-3.2v9.6h-3.6V75.6z"/>
	<path class="st0" d="M152.1,72.9h3.6v4.7h4.1v-4.7h3.5v12.3h-3.5v-4.9h-4.1v4.9h-3.6V72.9z"/>
</g>
<path class="st0" d="M75,1.1h8.6v8c3-5.1,8.3-8,15.5-8h6.9v8H99c-11.2,0-15.4,5.9-15.4,18.8v28.8H75V1.1z"/>
<path class="st0" d="M140.8,50.1c-11.4,0-20.1-9.5-20.1-21.1c0-11.7,8.8-21.1,20.1-21.1c7.2,0,13,3,16.5,8h9.7
	C162.5,6.2,153.1,0,140.8,0c-16,0-28.8,12.6-28.8,28.9c0,16.4,12.8,28.9,28.8,28.9c11.7,0,21.4-6.1,26-15.8H157
	C153.4,47,147.6,50.1,140.8,50.1"/>
<path class="st0" d="M35.6,0c-5.9,0-10.9,1.8-14.7,4.9v9.2c3.2-3.9,7.9-6.3,13.5-6.3c11.1,0,16.7,7.2,16.7,18v30.9h8.7V25.8
	C59.7,9.8,50.5,0,35.6,0"/>
<polygon class="st0" points="8.2,1.1 8.2,1.1 0,1.1 0,9.5 8.2,9.5 8.2,56.8 16.5,56.8 16.5,1.1 "/>
<rect x="183.8" y="1.2" class="st0" width="0.8" height="84.1"/>
<g>
	<path class="st0" d="M199,36v-1.4h12.5V36h-5.3v15.2h-1.8V36H199z"/>
	<path class="st0" d="M210,51.2V39.7h1.6v1.7c0.7-1.3,1.8-1.9,3.3-1.9l0.8,0.1V41l-0.7,0c-1.3,0-2.2,0.3-2.7,0.8
		c-0.5,0.5-0.8,1.4-0.8,2.7v6.8H210z"/>
	<path class="st0" d="M223.5,44.2v-1.6c0-0.7-0.2-1.2-0.7-1.6c-0.5-0.4-1.1-0.6-1.9-0.6c-1.7,0-2.7,0.7-2.8,2.1h-1.7
		c0-0.3,0-0.5,0.1-0.6c0-0.2,0.1-0.3,0.2-0.5c0.3-0.7,0.9-1.2,1.6-1.5c0.7-0.4,1.6-0.6,2.6-0.6c1,0,1.9,0.2,2.6,0.6
		c0.5,0.3,0.8,0.6,1,0.9c0.2,0.3,0.3,1,0.4,1.9v7.6v0.9h-1.5v-1.8c-0.6,0.7-1.1,1.3-1.7,1.6c-0.6,0.3-1.3,0.5-2.1,0.5
		c-1.2,0-2-0.2-2.7-0.7c-0.4-0.3-0.7-0.7-0.9-1.2c-0.2-0.5-0.3-1-0.3-1.6c0-0.6,0.2-1.2,0.5-1.7c0.3-0.5,0.8-0.9,1.3-1.2
		c0.5-0.3,1.1-0.5,1.8-0.6c0.6-0.1,1.3-0.2,2-0.2h0.8h0.8H223.5z M223.5,46.3v-1c-0.4,0-0.8-0.1-1-0.1h-0.3c-0.9,0-1.6,0.1-2.2,0.2
		c-0.6,0.1-1.1,0.3-1.4,0.6c-0.7,0.5-1.1,1.2-1.1,2c0,0.7,0.2,1.2,0.7,1.6c0.5,0.4,1.1,0.6,1.8,0.6c1.1,0,2-0.4,2.6-1.1
		S223.5,47.6,223.5,46.3z"/>
	<path class="st0" d="M228.5,51.2V39.7h1.6v2.3c0.8-1.7,2.1-2.6,3.9-2.6c0.9,0,1.6,0.2,2.3,0.6s1.1,0.9,1.3,1.5
		c0.2,0.6,0.3,1.5,0.3,2.4v7.4h-1.6V44c0-0.4,0-0.8-0.1-1.1s-0.1-0.6-0.2-0.8c-0.2-0.5-0.5-0.8-0.9-1.1c-0.5-0.3-1-0.4-1.6-0.4
		c-1.2,0-2.1,0.5-2.7,1.5c-0.3,0.4-0.5,0.9-0.6,1.4c-0.1,0.5-0.2,1.2-0.2,2v5.8H228.5z"/>
	<path class="st0" d="M240.3,47.7h1.7V48c0,0.7,0.2,1.3,0.7,1.7c0.5,0.5,1.1,0.7,1.9,0.7s1.4-0.2,1.9-0.7c0.5-0.4,0.8-1,0.8-1.6
		c0-0.4-0.1-0.8-0.4-1.1c-0.3-0.3-0.6-0.6-1.1-0.7l-1.2-0.3l-1.3-0.4l-1-0.3c-1.2-0.4-1.8-1.2-1.8-2.4c0-1,0.4-1.8,1.2-2.5
		s1.8-0.9,3-0.9c1.2,0,2.1,0.3,2.8,0.9c0.7,0.6,1.1,1.4,1.2,2.5H247c0-1.5-0.8-2.2-2.5-2.2c-0.7,0-1.3,0.2-1.7,0.6
		c-0.4,0.4-0.7,0.9-0.7,1.6c0,0.4,0.2,0.7,0.5,1c0.3,0.3,0.9,0.5,1.7,0.8l1.3,0.3l1.3,0.4c1.3,0.5,2,1.4,2,2.8c0,1.1-0.4,2-1.2,2.6
		c-0.8,0.7-1.9,1-3.3,1c-1.3,0-2.4-0.3-3.1-0.9s-1.1-1.5-1.1-2.6V47.7z"/>
	<path class="st0" d="M251.5,55.7V39.7h1.6v2.2c0.4-0.8,0.9-1.4,1.5-1.7c0.6-0.4,1.4-0.5,2.3-0.5c1.6,0,2.9,0.6,3.8,1.7
		c0.9,1.1,1.4,2.7,1.4,4.7c0,1.7-0.4,3.1-1.3,4.1c-0.9,1-2,1.5-3.5,1.5c-1,0-1.9-0.2-2.5-0.6c-0.6-0.4-1.2-1.1-1.6-2v6.9H251.5z
		 M254,41.8c-0.3,0.4-0.5,0.9-0.7,1.4c-0.1,0.5-0.2,1.2-0.2,2.1v0.2c0,0.9,0.1,1.5,0.2,2c0.1,0.5,0.4,0.9,0.7,1.4
		c0.7,1,1.7,1.5,2.9,1.5c1,0,1.9-0.4,2.5-1.3s0.9-2,0.9-3.3c0-1.6-0.3-2.8-1-3.7s-1.6-1.4-2.8-1.4C255.4,40.6,254.6,41,254,41.8z"/>
	<path class="st0" d="M271.4,44.2v-1.6c0-0.7-0.2-1.2-0.7-1.6c-0.5-0.4-1.1-0.6-1.9-0.6c-1.7,0-2.7,0.7-2.8,2.1h-1.7
		c0-0.3,0-0.5,0.1-0.6c0-0.2,0.1-0.3,0.2-0.5c0.3-0.7,0.9-1.2,1.6-1.5c0.7-0.4,1.6-0.6,2.6-0.6c1,0,1.9,0.2,2.6,0.6
		c0.5,0.3,0.8,0.6,1,0.9c0.2,0.3,0.3,1,0.4,1.9v7.6v0.9h-1.5v-1.8c-0.6,0.7-1.1,1.3-1.7,1.6c-0.6,0.3-1.3,0.5-2.1,0.5
		c-1.2,0-2-0.2-2.7-0.7c-0.4-0.3-0.7-0.7-0.9-1.2c-0.2-0.5-0.3-1-0.3-1.6c0-0.6,0.2-1.2,0.5-1.7c0.3-0.5,0.8-0.9,1.3-1.2
		c0.5-0.3,1.1-0.5,1.8-0.6c0.6-0.1,1.3-0.2,2-0.2h0.8h0.8H271.4z M271.4,46.3v-1c-0.4,0-0.8-0.1-1-0.1h-0.3c-0.9,0-1.6,0.1-2.2,0.2
		c-0.6,0.1-1.1,0.3-1.4,0.6c-0.7,0.5-1.1,1.2-1.1,2c0,0.7,0.2,1.2,0.7,1.6c0.5,0.4,1.1,0.6,1.8,0.6c1.1,0,2-0.4,2.6-1.1
		S271.4,47.6,271.4,46.3z"/>
	<path class="st0" d="M276.4,51.2V39.7h1.6v1.7c0.7-1.3,1.8-1.9,3.3-1.9l0.8,0.1V41l-0.7,0c-1.3,0-2.2,0.3-2.7,0.8
		c-0.5,0.5-0.8,1.4-0.8,2.7v6.8H276.4z"/>
	<path class="st0" d="M292.3,45.6h-8.5V46c0,0.2,0,0.3,0,0.5c0,0.2,0,0.4,0.1,0.8c0.4,2.1,1.6,3.2,3.5,3.2c1.7,0,2.7-0.9,3.1-2.7
		h1.5c-0.1,1.2-0.6,2.1-1.4,2.8c-0.8,0.7-1.9,1-3.3,1c-1.6,0-2.9-0.5-3.7-1.6c-0.9-1-1.3-2.5-1.3-4.5c0-1.9,0.5-3.4,1.4-4.4
		c0.9-1,2.2-1.5,3.9-1.5c1.6,0,2.8,0.5,3.6,1.4c0.8,1,1.3,2.4,1.3,4.2V45.6z M287.4,40.5c-1,0-1.9,0.4-2.5,1.1c-0.6,0.7-1,1.7-1,3
		h6.8v-0.4c0-1.2-0.3-2.1-0.9-2.7S288.4,40.5,287.4,40.5z"/>
	<path class="st0" d="M295,51.2V39.7h1.6v2.3c0.8-1.7,2.1-2.6,3.9-2.6c0.9,0,1.6,0.2,2.3,0.6s1.1,0.9,1.3,1.5
		c0.2,0.6,0.3,1.5,0.3,2.4v7.4h-1.6V44c0-0.4,0-0.8-0.1-1.1s-0.1-0.6-0.2-0.8c-0.2-0.5-0.5-0.8-0.9-1.1c-0.5-0.3-1-0.4-1.6-0.4
		c-1.2,0-2.1,0.5-2.7,1.5c-0.3,0.4-0.5,0.9-0.6,1.4c-0.1,0.5-0.2,1.2-0.2,2v5.8H295z"/>
	<path class="st0" d="M316.9,43.3h-1.5c0-0.9-0.3-1.5-0.8-2c-0.5-0.5-1.2-0.7-2.1-0.7c-1.2,0-2.1,0.4-2.8,1.3c-0.7,0.9-1,2.1-1,3.5
		c0,1.5,0.3,2.7,1,3.6c0.6,0.8,1.6,1.2,2.8,1.2c0.9,0,1.6-0.2,2.2-0.7s0.8-1.1,0.8-2l1.5,0c0,1.2-0.4,2.2-1.3,2.9
		c-0.8,0.7-2,1.1-3.4,1.1c-1.7,0-3-0.5-3.9-1.5s-1.4-2.5-1.4-4.5c0-2,0.5-3.5,1.4-4.5c0.9-1.1,2.2-1.6,3.9-1.6c1.4,0,2.4,0.3,3.2,1
		S316.7,42,316.9,43.3z"/>
	<path class="st0" d="M317.1,39.7l1.7,0l3.7,9.8l3.6-9.8h1.4l-6,16.1l-1.6,0l1.6-4.4L317.1,39.7z"/>
</g>
</svg>
