<?xml version="1.0" encoding="utf-8"?>
<!-- Generator: Adobe Illustrator 22.0.1, SVG Export Plug-In . SVG Version: 6.00 Build 0)  -->
<svg version="1.1" id="Layer_1" xmlns="http://www.w3.org/2000/svg" xmlns:xlink="http://www.w3.org/1999/xlink" x="0px" y="0px"
	 viewBox="0 0 432 231.1" style="enable-background:new 0 0 432 231.1;" xml:space="preserve">
<style type="text/css">
	.st0{fill:#FFFFFF;}
</style>
<g>
	<g>
		<path class="st0" d="M193.8,193.9h9.2v12.2h10.5v-12.2h9.1v31.9h-9.1v-12.6H203v12.6h-9.2V193.9z"/>
		<path class="st0" d="M239.3,193.9h22v7.1h-12.9v5.5h10.3v6.5h-10.3v5.8H262v7.1h-22.8V193.9z"/>
		<path class="st0" d="M285.9,193.9h11.8l10.1,31.9h-9.7l-1.7-5.9h-10.6l-1.7,5.9h-8.5L285.9,193.9z M287.7,213.6h7l-3.5-12.3
			L287.7,213.6z"/>
		<path class="st0" d="M322.4,193.9h9.2v24.8h12v7.1h-21.2V193.9z"/>
		<path class="st0" d="M361.5,200.9h-8.3v-7.1H379v7.1h-8.3v24.9h-9.2V200.9z"/>
		<path class="st0" d="M393.7,193.9h9.2v12.2h10.5v-12.2h9.1v31.9h-9.1v-12.6h-10.5v12.6h-9.2V193.9z"/>
	</g>
	<g>
		<g>
			<g>
				<g>
					<path class="st0" d="M194,8.1h22.2v20.7c7.8-13.2,21.6-20.7,40-20.7H274v20.7h-17.9c-29.1,0-39.7,15.3-39.7,48.7v74.6H194V8.1z
						"/>
					<path class="st0" d="M364.3,134.8c-29.4,0-52.1-24.5-52.1-54.7c0-30.2,22.7-54.7,52.1-54.7c18.6,0,33.6,7.9,42.7,20.8h25
						c-11.5-24.9-35.8-41-67.7-41c-41.5,0-74.6,32.5-74.6,74.9c0,42.3,33.1,74.9,74.6,74.9c30.3,0,55.4-15.9,67.4-41h-25.4
						C396.9,126.9,381.8,134.8,364.3,134.8"/>
					<path class="st0" d="M92.1,5.3c-15.1,0-28.1,4.7-38,12.6v23.8c8.2-10,20.4-16.2,34.8-16.2c28.8,0,43.2,18.7,43.2,46.6v80.1
						h22.5V72.1C154.6,30.6,130.7,5.3,92.1,5.3"/>
					<polygon class="st0" points="21.2,8.1 21.2,8.1 0,8.1 0,29.7 21.2,29.7 21.2,152.1 42.8,152.1 42.8,8.1 					"/>
				</g>
			</g>
		</g>
	</g>
</g>
</svg>
